<?xml version="1.0" encoding="UTF-8"?>
<svg xmlns="http://www.w3.org/2000/svg" xmlns:xlink="http://www.w3.org/1999/xlink" width="294px" height="100px" viewBox="0 0 293 100" version="1.1">
<defs>
<linearGradient id="linear0" gradientUnits="userSpaceOnUse" x1="204" y1="30" x2="204" y2="147" gradientTransform="matrix(0.563462,0,0,0.564972,0,0)">
<stop offset="0" style="stop-color:rgb(55.686275%,17.647059%,88.627451%);stop-opacity:1;"/>
<stop offset="1" style="stop-color:rgb(34.117647%,0%,100%);stop-opacity:1;"/>
</linearGradient>
<clipPath id="clip1">
  <path d="M 250 19.046875 L 275.753906 19.046875 L 275.753906 63 L 250 63 Z M 250 19.046875 "/>
</clipPath>
<linearGradient id="linear1" gradientUnits="userSpaceOnUse" x1="444.179993" y1="71.750198" x2="489.399994" y2="71.750198" gradientTransform="matrix(0.563462,0,0,0.564972,0,0)">
<stop offset="0" style="stop-color:rgb(55.686275%,17.647059%,88.627451%);stop-opacity:1;"/>
<stop offset="1" style="stop-color:rgb(34.117647%,0%,100%);stop-opacity:1;"/>
</linearGradient>
<linearGradient id="linear2" gradientUnits="userSpaceOnUse" x1="444.190002" y1="78.330002" x2="481.75" y2="78.330002" gradientTransform="matrix(0.563462,0,0,0.564972,0,0)">
<stop offset="0" style="stop-color:rgb(55.686275%,17.647059%,88.627451%);stop-opacity:1;"/>
<stop offset="1" style="stop-color:rgb(34.117647%,0%,100%);stop-opacity:1;"/>
</linearGradient>
<linearGradient id="linear3" gradientUnits="userSpaceOnUse" x1="426.089996" y1="84.670097" x2="471.309998" y2="84.670097" gradientTransform="matrix(0.563462,0,0,0.564972,0,0)">
<stop offset="0" style="stop-color:rgb(55.686275%,17.647059%,88.627451%);stop-opacity:1;"/>
<stop offset="1" style="stop-color:rgb(34.117647%,0%,100%);stop-opacity:1;"/>
</linearGradient>
<linearGradient id="linear4" gradientUnits="userSpaceOnUse" x1="426.100006" y1="91.250397" x2="463.660004" y2="91.250397" gradientTransform="matrix(0.563462,0,0,0.564972,0,0)">
<stop offset="0" style="stop-color:rgb(55.686275%,17.647059%,88.627451%);stop-opacity:1;"/>
<stop offset="1" style="stop-color:rgb(34.117647%,0%,100%);stop-opacity:1;"/>
</linearGradient>
<clipPath id="clip2">
  <path d="M 229.890625 33 L 256 33 L 256 77 L 229.890625 77 Z M 229.890625 33 "/>
</clipPath>
<linearGradient id="linear5" gradientUnits="userSpaceOnUse" x1="408" y1="97.589996" x2="453.220001" y2="97.589996" gradientTransform="matrix(0.563462,0,0,0.564972,0,0)">
<stop offset="0" style="stop-color:rgb(55.686275%,17.647059%,88.627451%);stop-opacity:1;"/>
<stop offset="1" style="stop-color:rgb(34.117647%,0%,100%);stop-opacity:1;"/>
</linearGradient>
<clipPath id="clip3">
  <path d="M 229.890625 36 L 252 36 L 252 80.953125 L 229.890625 80.953125 Z M 229.890625 36 "/>
</clipPath>
<linearGradient id="linear6" gradientUnits="userSpaceOnUse" x1="408.01001" y1="104.190002" x2="445.589996" y2="104.190002" gradientTransform="matrix(0.563462,0,0,0.564972,0,0)">
<stop offset="0" style="stop-color:rgb(55.686275%,17.647059%,88.627451%);stop-opacity:1;"/>
<stop offset="1" style="stop-color:rgb(34.117647%,0%,100%);stop-opacity:1;"/>
</linearGradient>
</defs>
<g id="surface1">
<path style=" stroke:none;fill-rule:nonzero;fill:rgb(100%,100%,100%);fill-opacity:1;" d="M 11.269531 0 L 281.386719 0 C 287.609375 0 292.65625 5.058594 292.65625 11.300781 L 292.65625 88.699219 C 292.65625 94.941406 287.609375 100 281.386719 100 L 11.269531 100 C 5.046875 100 0 94.941406 0 88.699219 L 0 11.300781 C 0 5.058594 5.046875 0 11.269531 0 Z M 11.269531 0 "/>
<path style=" stroke:none;fill-rule:evenodd;fill:url(#linear0);" d="M 29.300781 21.75 C 29.300781 19.097656 27.15625 16.949219 24.511719 16.949219 L 23.945312 16.949219 C 21.300781 16.949219 19.15625 19.097656 19.15625 21.75 C 19.15625 24.402344 21.300781 26.554688 23.945312 26.554688 L 24.511719 26.554688 C 27.15625 26.554688 29.300781 24.402344 29.300781 21.75 Z M 39.722656 16.949219 C 42.371094 16.949219 44.511719 19.097656 44.511719 21.75 C 44.511719 24.402344 42.371094 26.554688 39.722656 26.554688 L 39.160156 26.554688 C 36.515625 26.554688 34.371094 24.402344 34.371094 21.75 C 34.371094 19.097656 36.515625 16.949219 39.160156 16.949219 Z M 93.535156 64.6875 C 93.535156 62.039062 95.679688 59.886719 98.324219 59.886719 C 100.96875 59.886719 103.113281 62.039062 103.113281 64.6875 L 103.113281 65.253906 C 103.113281 67.90625 100.96875 70.054688 98.324219 70.054688 C 95.679688 70.054688 93.535156 67.90625 93.535156 65.253906 Z M 198.621094 59.886719 C 195.976562 59.886719 193.832031 62.039062 193.832031 64.6875 L 193.832031 65.253906 C 193.832031 67.90625 195.976562 70.054688 198.621094 70.054688 C 201.265625 70.054688 203.410156 67.90625 203.410156 65.253906 L 203.410156 64.6875 C 203.410156 62.039062 201.265625 59.886719 198.621094 59.886719 Z M 93.535156 77.683594 C 93.535156 75.03125 95.679688 72.882812 98.324219 72.882812 C 100.96875 72.882812 103.113281 75.03125 103.113281 77.683594 L 103.113281 78.25 C 103.113281 80.902344 100.96875 83.050781 98.324219 83.050781 C 95.679688 83.050781 93.535156 80.902344 93.535156 78.25 Z M 22.539062 33.898438 C 19.425781 33.898438 16.902344 36.429688 16.902344 39.546875 L 16.902344 58.757812 C 16.902344 61.878906 19.425781 64.40625 22.539062 64.40625 L 41.132812 64.40625 C 44.246094 64.40625 46.765625 61.878906 46.765625 58.757812 L 46.765625 39.546875 C 46.765625 36.429688 44.246094 33.898438 41.132812 33.898438 Z M 20.847656 54.238281 C 23.960938 54.238281 26.484375 56.765625 26.484375 59.886719 C 26.484375 56.765625 29.003906 54.238281 32.117188 54.238281 C 34.613281 54.238281 36.730469 55.863281 37.46875 58.117188 C 38.210938 55.863281 40.328125 54.238281 42.824219 54.238281 L 42.257812 54.238281 C 39.457031 54.238281 37.1875 51.960938 37.1875 49.152344 C 37.1875 46.34375 39.457031 44.066406 42.257812 44.066406 L 42.824219 44.066406 C 40.328125 44.066406 38.210938 42.441406 37.46875 40.1875 C 36.730469 42.441406 34.613281 44.066406 32.117188 44.066406 C 29.003906 44.066406 26.484375 41.539062 26.484375 38.417969 C 26.484375 41.539062 23.960938 44.066406 20.847656 44.066406 L 21.410156 44.066406 C 24.210938 44.066406 26.484375 46.34375 26.484375 49.152344 C 26.484375 51.960938 24.210938 54.238281 21.410156 54.238281 Z M 150.445312 22.597656 C 147.332031 22.597656 144.808594 25.128906 144.808594 28.25 L 144.808594 42.371094 L 149.457031 42.371094 C 152.257812 42.371094 154.53125 40.097656 154.53125 37.289062 C 154.53125 34.480469 152.257812 32.203125 149.457031 32.203125 L 148.949219 32.203125 C 152.039062 32.171875 154.53125 29.65625 154.53125 26.554688 L 154.53125 27.617188 C 154.53125 30.148438 156.578125 32.203125 159.101562 32.203125 C 161.628906 32.203125 163.675781 30.148438 163.675781 27.617188 L 163.675781 27.042969 C 163.675781 29.894531 165.980469 32.203125 168.824219 32.203125 C 171.664062 32.203125 173.96875 29.894531 173.96875 27.042969 L 173.96875 26.554688 C 173.96875 29.65625 176.460938 32.171875 179.546875 32.203125 L 179.039062 32.203125 C 176.238281 32.203125 173.96875 34.480469 173.96875 37.289062 C 173.96875 40.097656 176.238281 42.371094 179.039062 42.371094 L 183.6875 42.371094 L 183.6875 28.25 C 183.6875 25.128906 181.164062 22.597656 178.054688 22.597656 Z M 98.324219 32.203125 C 95.679688 32.203125 93.535156 34.351562 93.535156 37.003906 L 93.535156 42.371094 L 68.742188 42.371094 C 65.628906 42.371094 63.109375 44.902344 63.109375 48.023438 L 63.109375 72.882812 L 58.601562 72.882812 C 55.800781 72.882812 53.527344 75.15625 53.527344 77.964844 C 53.527344 80.773438 55.800781 83.050781 58.601562 83.050781 L 67.050781 83.050781 C 70.164062 83.050781 72.6875 80.519531 72.6875 77.402344 L 72.6875 52.542969 L 207.355469 52.542969 C 210.464844 52.542969 212.988281 50.011719 212.988281 46.894531 L 212.988281 37.003906 C 212.988281 34.351562 210.84375 32.203125 208.199219 32.203125 C 205.554688 32.203125 203.410156 34.351562 203.410156 37.003906 L 203.410156 42.371094 L 179.746094 42.371094 C 176.632812 42.371094 174.109375 44.902344 174.109375 48.023438 L 174.109375 47.457031 C 174.109375 44.648438 171.839844 42.371094 169.039062 42.371094 C 166.238281 42.371094 163.96875 44.648438 163.96875 47.457031 L 163.96875 47.175781 C 163.96875 44.523438 161.824219 42.371094 159.179688 42.371094 C 156.53125 42.371094 154.386719 44.523438 154.386719 47.175781 L 154.386719 48.023438 C 154.386719 44.902344 151.867188 42.371094 148.753906 42.371094 L 132.976562 42.371094 L 132.976562 37.003906 C 132.976562 34.351562 130.832031 32.203125 128.1875 32.203125 C 125.542969 32.203125 123.398438 34.351562 123.398438 37.003906 L 123.398438 42.371094 L 103.113281 42.371094 L 103.113281 37.003906 C 103.113281 34.351562 100.96875 32.203125 98.324219 32.203125 Z M 98.324219 32.203125 "/>
<g clip-path="url(#clip1)" clip-rule="nonzero">
<path style=" stroke:none;fill-rule:nonzero;fill:url(#linear1);" d="M 255.46875 19.9375 C 254.894531 19.363281 254.121094 19.042969 253.3125 19.042969 C 252.503906 19.042969 251.730469 19.363281 251.15625 19.9375 C 250.875 20.222656 250.648438 20.558594 250.496094 20.929688 C 250.339844 21.300781 250.261719 21.699219 250.261719 22.097656 C 250.261719 22.5 250.339844 22.898438 250.496094 23.269531 C 250.648438 23.640625 250.875 23.976562 251.15625 24.261719 L 255.46875 28.582031 L 255.46875 41.695312 L 275.753906 62.035156 L 275.753906 40.265625 Z M 255.46875 19.9375 "/>
</g>
<path style=" stroke:none;fill-rule:nonzero;fill:rgb(98.823529%,98.823529%,98.823529%);fill-opacity:1;" d="M 255.191406 21.582031 C 254.621094 21.007812 253.84375 20.6875 253.035156 20.6875 C 252.226562 20.6875 251.453125 21.007812 250.882812 21.582031 C 249.691406 22.773438 250.976562 24.0625 252.164062 25.261719 L 255.191406 28.085938 L 255.191406 43.339844 L 274.449219 62.65625 L 274.449219 40.894531 Z M 255.191406 21.582031 "/>
<path style=" stroke:none;fill-rule:nonzero;fill:url(#linear2);" d="M 250.285156 22.164062 L 250.285156 43.925781 C 250.292969 44.71875 250.613281 45.472656 251.175781 46.027344 L 271.457031 66.367188 L 271.457031 44.585938 L 251.175781 24.25 C 250.621094 23.695312 250.300781 22.949219 250.285156 22.164062 Z M 250.285156 22.164062 "/>
<path style=" stroke:none;fill-rule:nonzero;fill:url(#linear3);" d="M 245.292969 27.238281 C 244.71875 26.664062 243.945312 26.34375 243.136719 26.34375 C 242.328125 26.34375 241.550781 26.664062 240.980469 27.238281 C 240.410156 27.808594 240.089844 28.585938 240.089844 29.398438 C 240.089844 30.207031 240.410156 30.984375 240.980469 31.558594 L 245.292969 35.882812 L 245.292969 49 L 265.578125 69.339844 L 265.578125 47.566406 Z M 245.292969 27.238281 "/>
<path style=" stroke:none;fill-rule:nonzero;fill:rgb(98.823529%,98.823529%,98.823529%);fill-opacity:1;" d="M 245 28.882812 C 244.425781 28.308594 243.652344 27.988281 242.84375 27.988281 C 242.035156 27.988281 241.257812 28.308594 240.6875 28.882812 C 239.5 30.074219 240.785156 31.363281 241.972656 32.558594 L 245 35.382812 L 245 50.636719 L 264.261719 69.945312 L 264.261719 48.191406 Z M 245 28.882812 "/>
<path style=" stroke:none;fill-rule:nonzero;fill:url(#linear4);" d="M 240.089844 29.464844 L 240.089844 51.226562 C 240.101562 52.015625 240.421875 52.773438 240.980469 53.328125 L 261.265625 73.667969 L 261.265625 51.863281 L 240.980469 31.527344 C 240.433594 30.976562 240.113281 30.238281 240.089844 29.464844 Z M 240.089844 29.464844 "/>
<g clip-path="url(#clip2)" clip-rule="nonzero">
<path style=" stroke:none;fill-rule:nonzero;fill:url(#linear5);" d="M 235.097656 34.535156 C 234.527344 33.964844 233.753906 33.640625 232.945312 33.640625 C 232.136719 33.640625 231.359375 33.964844 230.789062 34.535156 C 230.21875 35.109375 229.894531 35.886719 229.894531 36.699219 C 229.894531 37.507812 230.21875 38.285156 230.789062 38.859375 L 235.097656 43.179688 L 235.097656 56.304688 L 255.382812 76.644531 L 255.382812 54.863281 Z M 235.097656 34.535156 "/>
</g>
<path style=" stroke:none;fill-rule:nonzero;fill:rgb(98.823529%,98.823529%,98.823529%);fill-opacity:1;" d="M 234.804688 36.179688 C 234.234375 35.609375 233.460938 35.285156 232.652344 35.285156 C 231.84375 35.285156 231.066406 35.609375 230.496094 36.179688 C 229.304688 37.371094 230.589844 38.667969 231.78125 39.859375 L 234.804688 42.683594 L 234.804688 57.9375 L 254.070312 77.289062 L 254.070312 55.492188 Z M 234.804688 36.179688 "/>
<g clip-path="url(#clip3)" clip-rule="nonzero">
<path style=" stroke:none;fill-rule:nonzero;fill:url(#linear6);" d="M 229.898438 36.761719 L 229.898438 58.527344 C 229.90625 59.316406 230.226562 60.070312 230.789062 60.628906 L 251.074219 80.964844 L 251.074219 59.210938 L 230.789062 38.871094 C 230.230469 38.3125 229.910156 37.554688 229.898438 36.761719 Z M 229.898438 36.761719 "/>
</g>
</g>
</svg>
